<svg xmlns="http://www.w3.org/2000/svg" viewBox="0 0 800 800" width="96" height="96">
    <defs>
        <linearGradient id="gradient" x1="173.11" y1="400" x2="4228.94" y2="400" gradientUnits="userSpaceOnUse">
            <stop offset="0" stop-color="#21d4fd"/>
            <stop offset="1" stop-color="#b721ff"/>
        </linearGradient>
    </defs>
    <path
            fill="url(#gradient)"
            class="cls-1"
            d="M672.28,51Q633.4,28.28,586.93,28.3H212A164.14,164.14,0,0,0,127.71,51a168.29,168.29,0,0,0-61.59,61.59,164.26,164.26,0,0,0-22.69,84.27v405.2a164.41,164.41,0,0,0,22.69,84.29,172.59,172.59,0,0,0,61.59,62.13A161.49,161.49,0,0,0,212,771.7H586.93q46.44,0,85.35-22.7a170.54,170.54,0,0,0,84.29-146.94V196.86a164.18,164.18,0,0,0-22.7-84.27A168.29,168.29,0,0,0,672.28,51Zm-2.42,473.13c-19.57,35.48-51.26,60.86-91.78,73.58-26.45,60-84.92,98.46-150.17,98.46a163.93,163.93,0,0,1-110.43-43,156.66,156.66,0,0,1-18.94,1.14c-69.29,0-131.15-44.24-154-110.11-10.44-30.16-12.17-60.12-5.2-89.15-52.71-72.29-39.47-170.71,31.25-226.38,16.27-12.8,33.54-21.88,51.4-27.06,24.85-57.87,84.88-97.75,147.93-97.75l3,0c42.62.94,79.34,15.32,109.31,42.76a156,156,0,0,1,18.39-1.07c45,0,88.59,19.13,119.71,52.5,31.43,33.71,47,77.44,43.79,123.18A152.43,152.43,0,0,1,660.48,345C700.05,401.61,703.33,463.42,669.86,524.13Z"/>
    <path
            fill="url(#gradient)"
            class="cls-1"
            d="M630.14,344.37a129.06,129.06,0,0,0,4.52-25.17c6-86.26-70.8-156.44-155.93-142.41-5.07.84-8.05-.21-11.5-3.66-26.15-26.3-58.1-39-95-39.82-53.05-1.09-105.39,33.68-124.78,83.6-2.67,6.89-6.32,10.15-13.27,11.86-16.86,4.13-31.91,12.36-45.47,23-59,46.45-69.22,130-23,189.41,4.08,5.25,5.15,9.69,3.35,16.13-7.28,26-5.57,51.85,3.2,77.19,20.51,59.25,81.12,98.22,145,89,7.84-1.14,12.71,1.11,18.27,6.32a134.18,134.18,0,0,0,216.81-47c2.91-7.07,6.88-10.25,13.94-12.32,33.82-9.89,60.67-29.71,77.7-60.59,29.23-53,25-104.33-11.17-152.87C629.75,353,628.72,349.53,630.14,344.37Zm-30-38.33c.34,6.35-.7,12.78-1.19,20.73-10.3-5.78-19.54-10.83-28.64-16.11-25.55-14.82-51.18-29.52-76.5-44.74-9.08-5.46-17.05-5.37-26.12-.06-36.89,21.58-74,42.8-111,64.13-4.24,2.44-8.55,4.74-14.23,7.89,0-17.18-.14-33,.17-48.72,0-2,1.93-4.86,3.77-5.93,36.3-21,71.86-43.58,109.3-62.39C521.52,187.73,596.1,232.46,600.12,306ZM458,400c0,9.08.39,18.18-.22,27.21-.2,3-2.17,7.1-4.62,8.61q-23.54,14.43-47.76,27.68c-2.72,1.48-7.66,1.38-10.43-.11-15.95-8.63-31.48-18-47.32-26.87-4.21-2.35-5.56-5.21-5.48-9.91.28-18.14-.05-36.3.39-54.44.07-2.91,2.22-6.95,4.64-8.43,15.49-9.44,31.38-18.21,47-27.43,4-2.36,7.18-2.47,11.33,0,15.59,9.29,31.53,18,47.05,27.36a12.14,12.14,0,0,1,5,8.35c.64,9.29.24,18.65.24,28ZM272.49,262.76c1.53-38.49,21-67.45,55.91-84.26,34.14-16.45,67.78-13.46,99.72,7.07,2.13,1.37,4,3.18,6.95,5.6-4.79,2.93-8.8,5.51-12.93,7.91-30.47,17.68-60.85,35.51-91.5,52.88-9.17,5.19-13.18,12.23-13.15,22.64.16,44.57,0,89.13-.05,133.7v10.46c-15.26-8.69-29-16.33-42.47-24.4-1.67-1-2.82-4.26-2.83-6.47C272,346.18,270.83,304.41,272.49,262.76Zm-51.71,10c4.82-2.81,10.17-4.74,16.9-7.82v47.83c0,24.9.26,49.8-.12,74.69-.15,9.76,3.84,16,12.11,20.71C289.5,431,329.17,454,368.89,477c1.78,1,3.53,2.12,6.2,3.73-14.61,8.49-28.52,16.74-42.67,24.57-1.7.94-5.08.22-7-.89C289.41,483.8,253,463.91,217.72,442,155,403.14,157,310,220.78,272.74Zm20.87,298.58c-32.19-23-45.56-55.31-40.69-94.82a12.1,12.1,0,0,1,1-2.27c7,3.86,13.93,7.61,20.78,11.55,27.83,16,55.74,31.9,83.39,48.23,9,5.35,16.95,5.37,26.1,0,40-23.42,80.29-46.38,120.47-69.51,1.09-.62,2.23-1.15,5.13-2.64,0,17.14.18,32.91-.21,48.65-.06,2.19-2.49,5.1-4.61,6.33-35.6,20.71-70.82,42.15-107.16,61.49C310.34,597.26,274.4,594.71,241.65,571.32Zm285.68-33c-1,54-54.79,99.65-108.38,93.22-20-2.4-38.12-8.85-54.39-23l46.1-26.83c19.72-11.46,39.36-23.07,59.23-34.28,8.66-4.89,12.13-11.73,12.09-21.6-.19-44.35,0-88.7.09-133,0-3.33,0-6.66,0-12.09,15.59,9,29.3,16.77,42.75,25,1.63,1,2.58,4.35,2.59,6.61C527.55,454.3,528.09,496.33,527.33,538.32Zm100.45-92.5c-1.69,38.53-20.61,67.14-54.87,85.31a43.61,43.61,0,0,1-5.75,2.35,31.62,31.62,0,0,1-4,.74V523.91c-.06-36.56-.3-73.13-.05-109.7.07-10.23-3.81-16.9-12.72-22-40-23-79.8-46.4-119.65-69.66-1.78-1-3.46-2.22-5.94-3.81,14.23-8.13,27.82-16.08,41.66-23.59a9.24,9.24,0,0,1,7.66.25c36.65,21,73.87,41.2,109.5,63.85C614.51,378.9,629.39,409.18,627.78,445.82Z"/>
</svg>
