<?xml version="1.0" standalone="no"?>
<svg version="1.0" xmlns="http://www.w3.org/2000/svg"
     width="128" height="128" viewBox="0 0 2561 2256"
     preserveAspectRatio="xMidYMid meet">

    <g transform="translate(0.000000,2256.000000) scale(0.100000,-0.100000)"
       fill="currentColor" stroke="none">
        <path d="M9200 13207 c-2505 -3812 -5170 -7869 -5922 -9014 -753 -1145 -1368
-2084 -1368 -2087 0 -3 3731 -6 8291 -6 4560 0 8289 4 8287 8 -1 5 -266 410
-588 900 l-585 891 -6034 1 c-5015 0 -6032 2 -6028 13 4 11 8291 12630 8452
12869 l51 77 2114 -3217 c1162 -1769 3344 -5090 4848 -7380 l2735 -4162 1074
0 c856 0 1074 3 1070 13 -2 6 -391 599 -862 1317 -472 718 -3133 4768 -5913
9000 -2780 4232 -5058 7698 -5061 7702 -4 5 -2056 -3112 -4561 -6925z"/>
        <path d="M22427 12583 l-1056 -1608 2111 -3 c1161 -1 2113 0 2115 2 5 4 -2079
3181 -2101 3204 -10 10 -220 -304 -1069 -1595z"/>
        <path d="M14250 10795 c0 -3 1270 -1961 2821 -4350 l2822 -4345 1073 0 1074 0
-30 48 c-16 26 -1286 1982 -2823 4347 l-2792 4300 -1073 3 c-589 1 -1072 0
-1072 -3z"/>
        <path d="M11817 9079 c-52 -79 -527 -803 -1056 -1608 -529 -805 -960 -1465
-958 -1467 2 -2 954 -3 2115 -2 l2110 3 -1053 1604 c-580 882 -1056 1606
-1059 1609 -3 2 -47 -60 -99 -139z"/>
    </g>
</svg>
