<svg
        class="icon"
        viewBox="0 -90 1160 1160"
        version="1.1" xmlns="http://www.w3.org/2000/svg"
        width="128" height="128"
>
    <path
            d="M174.942864 0.72975c7.458041-0.67137 14.646074 2.233034 21.607885 5.385551q84.658247 38.37753 160.333278 92.357106c126.764798 90.423269 236.49724 213.721756 310.092484 352.520124q20.42569 38.52348 42.179525 88.073475c16.032598 36.531263 29.57675 74.653381 38.275365 113.629306q2.627098 11.763563 2.911701 14.295794c2.203844 19.199711-9.888107 45.273663-33.68524 39.727566q-4.553637-1.058137-14.923379-4.838239-16.879108-6.137194-33.874975-11.946001c-128.975939-44.076874-266.030205-41.98979-393.896925 3.619558q-8.844565 3.152518-20.637318 8.983217-29.270255 14.478231-52.863058 24.621751c-14.281199 6.137194-30.518127 10.063247-46.112876 10.063246q-1.824374 0-3.473608-0.992459-0.299197-0.17514-0.350279-0.518122-0.75894-5.166627 1.474094-8.47969c27.453179-40.690836 52.082227-84.782305 68.924846-131.179783 56.052064-154.385819 51.768434-323.636636-15.127708-473.994237-4.22525-9.494042-9.494042-19.447826-15.156899-29.28485q-16.81343-29.19728-34.903922-57.628324c-3.546583-5.582584-5.962054-10.851376-4.290927-17.258577 2.488446-9.530529 14.252009-16.309903 23.497936-17.156412z"
            fill="currentColor"
    />
    <path
            d="M541.890137 200.440314q-29.773782-28.628076-66.954523-52.527374c-9.26782-5.954756-9.734859-16.477745-4.502554-25.336905 8.114815-13.741184 24.687428-12.901972 37.44345-7.640478q24.694725 10.187304 49.214311 26.02287 75.105826 48.499156 141.359789 108.535653c126.706418 114.818797 218.851896 259.469757 272.109019 421.875523 3.64145 11.106788 6.246656 20.265146-2.911701 29.75189-7.363173 7.625883-15.550963 1.291657-22.782781-2.174653q-37.633185-18.032112-79.039176-17.295065c-5.940161 0.102165-14.003894 0.868402-19.374851 1.182194-21.724645 1.269764-40.143524-14.098762-46.952087-34.050115q-8.406715-24.629048-16.98857-49.214311c-34.56094-99.012421-79.126746-197.827811-139.236218-283.405542-29.562155-42.07736-64.123095-79.90028-101.384108-115.723687zM211.70035 931.700465c-11.318416-9.23863-20.206766-22.038437-32.254931-30.18974-28.971058-19.601073-61.080039-3.940648-85.957202 14.237414-18.608614 13.602532-33.386043 24.986625-51.688162 35.297987q-11.340308 6.385309-24.82608 9.318902c-5.195817 1.131112-11.194358 2.160059-14.580396-3.247386-3.086841-4.933107-2.021406-13.040625-0.021893-18.302119 1.065434-2.794941 2.320604-4.188763 4.911215-6.042327q41.821948-29.846757 83.54173-59.839464c10.537584-7.582098-3.371443-24.249578-7.873998-31.583562q-8.735102-14.222819-5.786914-30.233524c2.437364-13.223062 11.800051-24.074438 25.592318-25.519343 38.924842-4.086598 78.564839-3.575773 117.788878-6.837753q50.162985-4.16687 64.283639-4.823645 43.361719-1.999514 60.11677-3.2036c29.189983-2.101679 58.409155-3.546583 87.635625-5.122842q5.633667-0.306495 11.894918-0.897592 44.273906-4.188763 57.226962-4.69229c38.72781-1.503284 77.740222-3.035758 116.365866-6.283144q52.038442-4.378497 104.208238-6.691803 7.793725-0.35028 14.573099-0.78813 86.869389-5.626369 173.738777-11.376796 35.370962-2.342496 70.793006-3.568475c3.028461-0.102165 6.757481-0.401362 9.939189-0.824617q18.207252-2.444661 36.531264-3.663343 2.940891-0.197032 13.266847-1.904646c12.17952-2.014109 49.951358-5.874484 47.813192 16.682075-1.138409 12.077355-13.091707 23.651184-21.88519 30.985167q-16.601803 13.828754-34.933112 25.285822c-13.982002 8.7424-28.379961 17.032355-42.026277 26.278282-29.058628 19.688643-57.898331 40.537589-87.781576 58.044281q-29.832162 17.477502-60.218935 33.955247-1.350037 0.72975-2.357091 1.481392-0.678667 0.503527-0.021892 1.036244c29.087818 23.855513 64.969604-10.187304 85.008527-28.890785q7.319388-6.830456 11.128681-9.391877c20.323525-13.639019 49.820003-15.543666 73.463889-15.813673 5.976649-0.065677 11.340308 1.058137 17.032355 2.430066 51.02409 12.29628 94.612032 42.36926 127.888612 83.242533 2.130869 2.619801 2.663586 4.89662 0.75894 7.713453-3.240088 4.772562-9.136465 6.553151-14.624182 6.545854q-29.766485-0.02919-52.001954-20.141088c-13.449285-12.172223-32.342501-29.423503-51.002197-40.026764q-7.63318-4.334712-13.266848-5.998542c-24.782295-7.312091-50.272448 6.575044-69.946496 20.600831q-19.163224 13.668209-38.34834 27.321823-10.924351 7.77913-25.993679 13.617127c-45.405018 17.594262-80.316238-14.098762-113.782553-38.676727-16.061788-11.792753-34.925814-22.585749-55.42448-22.979814-11.026516-0.218925-25.242038 2.298711-34.378502 9.129167-42.186823 31.568966-87.482378 71.902225-145.117999 49.389451-20.126493-7.859403-35.443937-20.994895-51.279502-34.480667-12.478718-10.617856-27.489666-21.498422-44.164444-23.527126-19.958651-2.422769-37.70616 7.414256-53.563619 18.097789-27.153981 18.302119-54.738515 38.757-88.562407 41.092199-33.926057 2.342496-65.480429-4.728777-91.831686-26.219902z"
            fill="currentColor"
    />
</svg>
