<svg t="1722043948210" class="icon" viewBox="0 0 1024 1024" version="1.1" xmlns="http://www.w3.org/2000/svg"
     p-id="11382" width="16" height="16">
    <path d="M262.485333 279.893333c-56.661333 8.874667-100.352 37.888-121.514666 81.237334-12.288 24.917333-15.018667 64.853333-6.144 95.232 4.778667 16.725333 9.216 23.552 28.330666 41.984 25.6 25.258667 45.056 34.474667 118.101334 56.661333 69.290667 20.821333 94.549333 37.546667 99.328 65.877333 1.706667 9.898667 0.341333 17.749333-4.437334 28.672-11.605333 26.624-39.594667 39.936-82.944 39.936-44.373333 0-78.165333-16.042667-98.986666-47.104-6.144-8.874667-11.264-16.384-11.605334-17.066666-2.048-2.389333-66.56 32.085333-66.56 35.498666 0 6.826667 28.672 43.690667 44.714667 57.002667 74.069333 63.488 206.506667 61.098667 267.605333-4.778667 23.552-25.6 32.768-49.152 32.768-85.333333 0-32.426667-4.096-48.128-17.749333-69.290667-21.504-32.426667-51.882667-49.152-134.144-73.728-73.728-21.845333-94.208-35.498667-99.328-64.853333-4.778667-27.306667 18.773333-55.637333 54.613333-65.194667 19.114667-5.12 58.368-2.048 76.8 6.144 16.042667 6.826667 34.133333 22.869333 47.104 40.277334l7.168 10.24 21.504-11.605334c11.946667-6.144 26.624-14.336 32.768-18.090666l10.922667-6.826667-7.509333-13.653333c-18.090667-32.085333-56.661333-62.805333-93.184-74.069334-24.917333-7.850667-71.68-11.264-97.621334-7.168zM529.066667 520.533333V754.346667h95.573333c73.386667 0 102.058667-1.365333 122.197333-5.461334 32.085333-6.485333 81.578667-30.037333 103.765334-49.152 18.090667-15.36 42.325333-50.858667 53.248-77.141333 18.090667-43.349333 22.186667-121.514667 9.216-175.445333-14.677333-60.757333-54.613333-110.933333-107.861334-136.192-45.056-21.504-66.218667-24.234667-178.858666-24.234667H529.066667v233.813333z m206.506666-153.6c52.906667 13.653333 87.381333 51.2 99.328 107.178667 8.874667 43.349333 3.754667 98.304-12.288 130.389333-17.066667 33.109333-54.272 62.122667-92.501333 71.338667-8.192 2.048-38.570667 4.778667-66.901333 5.802667l-52.224 2.048V361.813333h52.224c35.84 0 58.368 1.706667 72.362666 5.12z"
          p-id="11383"></path>
</svg>
