<svg version="1.0" xmlns="http://www.w3.org/2000/svg"
     width="128" height="128" viewBox="0 0 540.000000 540.000000"
     preserveAspectRatio="xMidYMid meet"
>

    <g
            transform="translate(0.000000,540.000000) scale(0.100000,-0.100000)"
       fill="transparent" stroke="none">
        <path d="M0 2700 l0 -2700 2700 0 2700 0 0 2700 0 2700 -2700 0 -2700 0 0
-2700z m2045 1238 c14 -39 123 -1091 153 -1483 10 -126 21 -221 24 -210 4 11
9 63 13 115 13 201 87 1058 113 1315 l27 270 348 3 c218 1 347 -1 347 -7 0 -6
-20 -162 -45 -348 -24 -186 -67 -511 -95 -723 -27 -212 -57 -432 -65 -490 -8
-58 -40 -296 -70 -530 -31 -234 -58 -431 -60 -437 -3 -10 -112 -13 -499 -13
-296 0 -497 4 -501 9 -5 9 -93 587 -240 1571 -111 746 -136 907 -141 938 l-6
32 346 0 c268 0 348 -3 351 -12z m1885 -1708 l0 -830 -330 0 -330 0 0 830 0
830 330 0 330 0 0 -830z" fill="currentColor"/>
    </g>
</svg>
