<svg
        xmlns="http://www.w3.org/2000/svg"
        version="1.1"
        viewBox="0.00 0.00 50.00 51.00"
        width="128"
        height="128"
>
    <g stroke-width="2.00" fill="none" stroke-linecap="butt">
        <path stroke="#07b3e8" vector-effect="non-scaling-stroke" d="   M 39.53 4.76   Q 29.32 5.80 22.95 12.09"/>
        <path stroke="#4ff9a1" vector-effect="non-scaling-stroke" d="   M 17.73 15.79   Q 9.53 10.42 1.82 16.90"/>
        <path stroke="#2eb5b6" vector-effect="non-scaling-stroke" d="   M 40.12 25.94   Q 39.52 26.78 38.47 26.68"/>
        <path stroke="#49b6b3" vector-effect="non-scaling-stroke" d="   M 11.52 24.29   Q 10.47 24.33 9.57 24.76"/>
        <path stroke="#07b1f1" vector-effect="non-scaling-stroke" d="   M 27.50 38.67   Q 20.63 45.28 10.25 46.12"/>
        <path stroke="#34f7ac" vector-effect="non-scaling-stroke" d="   M 41.34 45.27   Q 37.88 39.07 31.60 35.78"/>
    </g>
    <path fill="#0df6d6"
          d="   M 27.40 0.00   Q 34.08 0.74 39.53 4.76   Q 29.32 5.80 22.95 12.09   L 17.73 15.79   Q 9.53 10.42 1.82 16.90   Q 0.88 16.19 0.44 15.48   Q 0.18 15.05 0.45 14.61   Q 8.11 2.49 22.42 0.00   L 27.40 0.00   Z"/>
    <path fill="#016ffa"
          d="   M 40.12 25.94   Q 39.52 26.78 38.47 26.68   C 41.36 19.42 39.42 11.26 30.25 10.67   Q 27.85 10.52 22.95 12.09   Q 29.32 5.80 39.53 4.76   Q 45.95 7.97 44.65 15.18   Q 43.65 20.68 40.12 25.94   Z"/>
    <path fill="#90fc6b"
          d="   M 17.73 15.79   Q 13.74 19.32 11.52 24.29   Q 10.47 24.33 9.57 24.76   L 1.82 16.90   Q 9.53 10.42 17.73 15.79   Z"/>
    <path fill="#016ffa"
          d="   M 11.52 24.29   C 8.33 32.33 11.23 40.84 21.26 40.27   Q 23.17 40.16 27.50 38.67   Q 20.63 45.28 10.25 46.12   Q 3.10 42.21 5.87 33.40   Q 7.21 29.13 9.69 25.42   A 0.41 0.40 -42.4 0 0 9.71 25.01   L 9.57 24.76   Q 10.47 24.33 11.52 24.29   Z"/>
    <path fill="#5afb71"
          d="   M 40.12 25.94   L 50.00 35.84   Q 50.00 35.80 50.00 35.76   Q 46.55 41.49 41.34 45.27   Q 37.88 39.07 31.60 35.78   Q 36.20 31.91 38.47 26.68   Q 39.52 26.78 40.12 25.94   Z"/>
    <path fill="#0df2e7"
          d="   M 31.60 35.78   Q 37.88 39.07 41.34 45.27   Q 35.21 49.77 27.55 51.00   L 22.61 51.00   Q 15.84 50.23 10.25 46.12   Q 20.63 45.28 27.50 38.67   L 31.60 35.78   Z"/>
    />
</svg>